<?xml version="1.0" standalone="no"?>
<svg xmlns="http://www.w3.org/2000/svg" width="24" height="24"><rect width="24" height="24" opacity="0"></rect><g><path d="M15.43 8.95L12.65 10.85L12.91 7.49L11.06 7.49L11.33 10.85L8.57 8.95L7.63 10.56L10.68 12L7.63 13.44L8.57 15.05L11.35 13.15L11.09 16.49L12.94 16.49L12.67 13.15L15.43 15.05L16.37 13.44L13.32 12L16.37 10.56Z" fill="rgba(0,0,0,1)"></path><path d="M4.73 3Q3.72 3 2.87 3.5Q2.02 4.01 1.51 4.86Q1.01 5.71 1.01 6.72L1.01 17.28Q1.01 18.29 1.51 19.14Q2.02 19.99 2.87 20.5Q3.72 21 4.73 21L19.27 21Q20.28 21 21.13 20.5Q21.98 19.99 22.49 19.14Q22.99 18.29 22.99 17.28L22.99 6.72Q22.99 5.71 22.49 4.86Q21.98 4.01 21.13 3.5Q20.28 3 19.27 3L4.73 3ZM21.5 17.28Q21.5 18.19 20.84 18.84Q20.18 19.49 19.27 19.49L4.73 19.49Q3.82 19.49 3.16 18.84Q2.5 18.19 2.5 17.28L2.5 6.72Q2.5 5.81 3.16 5.15Q3.82 4.49 4.73 4.49L19.27 4.49Q20.18 4.49 20.83 5.15Q21.48 5.81 21.48 6.72L21.5 17.28Z" fill="rgba(0,0,0,1)"></path></g></svg>