<?xml version="1.0" standalone="no"?>
<!DOCTYPE svg PUBLIC "-//W3C//DTD SVG 1.1//EN" "http://www.w3.org/Graphics/SVG/1.1/DTD/svg11.dtd">
<svg t="1760243173986" class="icon" version="1.1" xmlns="http://www.w3.org/2000/svg" p-id="10958" xmlns:xlink="http://www.w3.org/1999/xlink" width="48" height="48">
  <path d="M16.51,43.88h-8.43c-.23,0-.42-.19-.42-.43l-.02-23.81L23.93,4.74l16.3,14.89.02,23.82c0,.23-.19.42-.42.42h-8.43M46.76,20.84l-6.51-5.95L25.12,1.08c-.67-.61-1.7-.61-2.37,0L1.13,20.84c-.71.65-.76,1.76-.11,2.47,0,0,0,0,0,0,.65.71,1.76.76,2.48.11l.63-.58.02,20.61c0,2.17,1.76,3.93,3.93,3.93h31.75c2.17,0,3.93-1.76,3.93-3.93l-.02-20.62.65.59c.32.3.75.46,1.18.46.97,0,1.75-.78,1.75-1.75,0-.49-.21-.96-.57-1.3"/>
  <path d="M23.84,32.15c-3.05,0-5.54-2.48-5.54-5.53s2.48-5.53,5.54-5.53,5.53,2.48,5.53,5.53-2.48,5.53-5.53,5.53M35.98,36.46l-4.91-4.88c1-1.46,1.54-3.19,1.54-4.96,0-4.83-3.93-8.76-8.77-8.76s-8.77,3.93-8.77,8.76,3.93,8.76,8.77,8.76c1.75,0,3.49-.54,4.94-1.52l4.92,4.89c.3.3.71.47,1.14.47.43,0,.84-.17,1.14-.47.3-.3.47-.71.47-1.14,0-.43-.17-.84-.47-1.14"/>
</svg>