<?xml version="1.0" standalone="no"?>
<svg xmlns="http://www.w3.org/2000/svg" width="48" height="48"><rect width="48" height="48" opacity="0"></rect><g><path d="M21.5 46.22Q22.37 46.37 23.06 46.2Q23.76 46.03 24.24 45.55Q24.58 45.26 24.67 45.02L39.5 21.46Q39.89 20.78 39.91 20.02Q39.94 19.25 39.55 18.58Q39.17 17.9 38.52 17.5Q37.87 17.09 37.1 17.09L28.51 17.09L28.51 4.46Q28.51 4.22 28.46 3.94Q28.32 3.17 27.79 2.57Q27.26 1.97 26.5 1.73Q25.68 1.54 24.91 1.78Q24.14 2.02 23.57 2.59L23.28 2.98L8.5 26.5Q8.06 27.17 8.04 27.96Q8.02 28.75 8.4 29.38Q8.78 30.1 9.46 30.48Q10.13 30.86 10.9 30.86L19.44 30.86L19.44 43.49L19.44 43.73Q19.54 44.64 20.09 45.31Q20.64 45.98 21.5 46.22ZM24.86 7.39L24.86 18.96Q24.86 19.78 25.37 20.28Q25.87 20.78 26.69 20.78L35.57 20.78L23.14 40.61L23.14 29.04Q23.14 28.27 22.61 27.74Q22.08 27.22 21.26 27.22L12.38 27.22Z" fill="rgba(0,0,0,0.9019607843137255)"></path></g></svg>