<?xml version="1.0" standalone="no"?>
<svg xmlns="http://www.w3.org/2000/svg" width="24" height="24"><rect width="24" height="24" opacity="0"></rect><g><path d="M17.14 12.36Q17.69 12.36 18.23 12.14Q18.77 11.93 19.2 11.5L21.65 9.02Q22.2 8.47 22.4 7.72Q22.61 6.96 22.4 6.2Q22.2 5.45 21.65 4.9L19.2 2.42Q18.65 1.87 17.89 1.68Q17.14 1.49 16.38 1.68Q15.62 1.87 15.07 2.42L12.6 4.92Q12.05 5.47 11.84 6.23Q11.64 6.98 11.84 7.74Q12.05 8.5 12.6 9.05L15.07 11.52Q15.48 11.93 16.02 12.14Q16.56 12.36 17.14 12.36ZM17.14 3.41Q17.35 3.41 17.56 3.5Q17.76 3.6 17.9 3.74L20.38 6.22Q20.69 6.53 20.69 6.97Q20.69 7.42 20.38 7.73L17.9 10.2Q17.57 10.54 17.14 10.54Q16.7 10.54 16.37 10.2L13.9 7.73Q13.58 7.42 13.58 6.97Q13.58 6.53 13.9 6.22L16.37 3.74Q16.68 3.41 17.14 3.41ZM18.89 22.46Q19.68 22.46 20.34 22.07Q21 21.67 21.4 21.01Q21.79 20.35 21.79 19.56L21.79 16.06Q21.79 15.26 21.4 14.59Q21 13.92 20.34 13.52Q19.68 13.13 18.89 13.13L15.38 13.13Q14.59 13.13 13.92 13.52Q13.25 13.92 12.85 14.59Q12.46 15.26 12.46 16.06L12.46 19.56Q12.46 20.35 12.85 21.01Q13.25 21.67 13.92 22.07Q14.59 22.46 15.38 22.46L18.89 22.46ZM18.89 14.98Q19.32 14.98 19.64 15.29Q19.97 15.6 19.97 16.06L19.97 19.56Q19.97 19.99 19.64 20.32Q19.32 20.64 18.89 20.64L15.38 20.64Q14.93 20.64 14.62 20.32Q14.3 19.99 14.3 19.56L14.3 16.06Q14.3 15.6 14.62 15.29Q14.93 14.98 15.38 14.98L18.89 14.98ZM8.04 22.46Q8.83 22.46 9.5 22.07Q10.18 21.67 10.57 21.01Q10.97 20.35 10.97 19.56L10.97 16.06Q10.97 15.26 10.57 14.59Q10.18 13.92 9.5 13.52Q8.83 13.13 8.04 13.13L4.54 13.13Q3.74 13.13 3.08 13.52Q2.42 13.92 2.03 14.59Q1.63 15.26 1.63 16.06L1.63 19.56Q1.63 20.35 2.03 21.01Q2.42 21.67 3.08 22.07Q3.74 22.46 4.54 22.46L8.04 22.46ZM8.04 14.98Q8.47 14.98 8.8 15.29Q9.12 15.6 9.12 16.06L9.12 19.56Q9.12 19.99 8.8 20.32Q8.47 20.64 8.04 20.64L4.54 20.64Q4.1 20.64 3.78 20.32Q3.46 19.99 3.46 19.56L3.46 16.06Q3.46 15.6 3.78 15.29Q4.1 14.98 4.54 14.98L8.04 14.98ZM8.04 11.64Q8.83 11.64 9.5 11.24Q10.18 10.85 10.57 10.18Q10.97 9.5 10.97 8.71L10.97 5.21Q10.97 4.42 10.57 3.76Q10.18 3.1 9.5 2.7Q8.83 2.3 8.04 2.3L4.54 2.3Q3.74 2.3 3.08 2.7Q2.42 3.1 2.03 3.76Q1.63 4.42 1.63 5.21L1.63 8.71Q1.63 9.5 2.03 10.18Q2.42 10.85 3.08 11.24Q3.74 11.64 4.54 11.64L8.04 11.64ZM8.04 4.13Q8.47 4.13 8.8 4.45Q9.12 4.78 9.12 5.21L9.12 8.71Q9.12 9.17 8.8 9.48Q8.47 9.79 8.04 9.79L4.54 9.79Q4.1 9.79 3.78 9.48Q3.46 9.17 3.46 8.71L3.46 5.21Q3.46 4.78 3.78 4.45Q4.1 4.13 4.54 4.13L8.04 4.13Z" fill="rgba(0,0,0,0.9019607843137255)"></path></g></svg>