<?xml version="1.0" standalone="no"?>
<svg xmlns="http://www.w3.org/2000/svg" width="48" height="48"><rect width="48" height="48" opacity="0"></rect><g><path d="M19.68 37.49Q19.68 39.31 20.95 40.56Q22.22 41.81 24 41.81Q25.78 41.81 27.05 40.56Q28.32 39.31 28.32 37.49Q28.32 35.71 27.05 34.46Q25.78 33.22 24 33.22Q22.22 33.22 20.95 34.46Q19.68 35.71 19.68 37.49Z" fill="rgba(0,0,0,0.9019607843137255)"></path><path d="M13.3 28.66Q12.86 29.23 12.91 29.95Q12.96 30.67 13.54 31.15Q14.11 31.58 14.86 31.54Q15.6 31.49 16.08 30.91Q17.52 29.09 19.58 28.1Q21.65 27.12 24 27.12Q26.35 27.12 28.42 28.1Q30.48 29.09 31.92 30.91Q32.35 31.44 33.1 31.51Q33.84 31.58 34.42 31.15Q34.99 30.67 35.04 29.93Q35.09 29.18 34.66 28.61Q32.69 26.21 29.88 24.89Q27.07 23.57 24 23.57Q20.88 23.57 18.07 24.89Q15.26 26.21 13.3 28.61Z" fill="rgba(0,0,0,0.9019607843137255)"></path><path d="M40.27 25.39Q40.85 24.91 40.92 24.17Q40.99 23.42 40.56 22.85Q37.49 19.1 33.14 17.04Q28.8 14.98 24 14.98Q19.2 14.98 14.86 17.04Q10.51 19.1 7.44 22.85Q7.01 23.42 7.08 24.17Q7.15 24.91 7.73 25.39Q8.3 25.82 9.05 25.75Q9.79 25.68 10.27 25.1Q12.77 21.98 16.37 20.28Q19.97 18.58 24 18.58Q28.08 18.58 31.66 20.28Q35.23 21.98 37.78 25.1Q38.21 25.68 38.93 25.75Q39.65 25.82 40.27 25.39Z" fill="rgba(0,0,0,0.9019607843137255)"></path><path d="M0.58 18.29Q1.01 18.77 1.7 18.79Q2.4 18.82 2.98 18.43L3.07 18.29Q7.34 14.16 12.65 11.95Q17.95 9.74 23.9 9.74Q29.86 9.74 35.28 12Q40.7 14.26 44.93 18.43Q45.41 18.96 46.18 18.96Q46.94 18.96 47.42 18.43Q47.95 17.95 47.95 17.18Q47.95 16.42 47.42 15.94Q42.72 11.23 36.6 8.71Q30.48 6.19 23.9 6.19Q17.33 6.19 11.3 8.66Q5.28 11.14 0.58 15.79L0.43 15.89Q0 16.42 0.02 17.11Q0.05 17.81 0.58 18.29Z" fill="rgba(0,0,0,0.9019607843137255)"></path></g></svg>