<?xml version="1.0" standalone="no"?><!DOCTYPE svg PUBLIC "-//W3C//DTD SVG 1.1//EN" "http://www.w3.org/Graphics/SVG/1.1/DTD/svg11.dtd"><svg t="1760243584796" class="icon" viewBox="0 0 1024 1024" version="1.1" xmlns="http://www.w3.org/2000/svg" p-id="34440" xmlns:xlink="http://www.w3.org/1999/xlink" width="48" height="48"><path d="M823.751111 341.333333c2.275556-15.928889 4.551111-31.857778 6.826667-45.511111 11.377778-109.226667-15.928889-186.595556-72.817778-220.728889-31.857778-18.204444-88.746667-29.582222-170.666667 15.928889-22.755556 13.653333-47.786667 29.582222-72.817777 50.062222-4.551111-4.551111-11.377778-9.102222-15.928889-13.653333-86.471111-68.266667-166.115556-86.471111-225.28-54.613333C211.626667 104.675556 184.32 182.044444 195.697778 291.271111c0 6.826667 2.275556 13.653333 2.275555 20.48-29.582222 9.102222-56.888889 20.48-81.92 34.133333-84.195556 45.511111-102.4 97.848889-104.675555 136.533334-4.551111 68.266667 47.786667 131.982222 145.635555 179.768889 13.653333 6.826667 27.306667 13.653333 43.235556 18.204444-2.275556 15.928889-4.551111 31.857778-6.826667 45.511111-11.377778 109.226667 15.928889 186.595556 72.817778 220.728889 31.857778 18.204444 88.746667 29.582222 170.666667-15.928889 22.755556-13.653333 47.786667-29.582222 72.817777-50.062222 4.551111 4.551111 11.377778 9.102222 15.928889 13.653333 86.471111 68.266667 166.115556 86.471111 225.28 54.613334 59.164444-31.857778 86.471111-109.226667 75.093334-220.728889 0-6.826667-2.275556-13.653333-2.275556-20.48 29.582222-9.102222 56.888889-20.48 81.92-34.133334 84.195556-45.511111 102.4-97.848889 104.675556-136.533333 4.551111-68.266667-47.786667-131.982222-145.635556-179.768889-11.377778-4.551111-25.031111-11.377778-40.96-15.928889zM409.6 880.64c-31.857778 18.204444-77.368889 34.133333-111.502222 15.928889-36.408889-20.48-50.062222-79.644444-43.235556-161.564445 0-11.377778 2.275556-20.48 4.551111-31.857777 36.408889 11.377778 75.093333 20.48 116.053334 27.306666 29.582222 40.96 59.164444 77.368889 91.022222 109.226667-20.48 18.204444-38.684444 29.582222-56.888889 40.96zM327.68 659.911111c-18.204444-4.551111-38.684444-9.102222-54.613333-15.928889 4.551111-18.204444 11.377778-36.408889 15.928889-54.613333 6.826667 11.377778 11.377778 22.755556 18.204444 36.408889l20.48 34.133333z m-75.093333-147.911111c-15.928889 38.684444-29.582222 75.093333-38.684445 111.502222-9.102222-4.551111-20.48-9.102222-29.582222-13.653333-72.817778-36.408889-113.777778-81.92-111.502222-122.88 2.275556-38.684444 40.96-68.266667 75.093333-86.471111 18.204444-9.102222 38.684444-18.204444 61.44-27.306667 9.102222 45.511111 25.031111 91.022222 43.235556 138.808889z m314.026666-229.831111c-13.653333-2.275556-27.306667-2.275556-40.96-2.275556-20.48-2.275556-40.96-2.275556-61.44-2.275555 15.928889-18.204444 31.857778-36.408889 50.062223-54.613334 15.928889 18.204444 34.133333 36.408889 52.337777 59.164445z m-309.475555 4.551111c-6.826667-81.92 9.102222-141.084444 43.235555-161.564444 36.408889-20.48 93.297778-2.275556 159.288889 50.062222l9.102222 6.826666-27.306666 27.306667c-20.48 20.48-38.684444 45.511111-56.888889 68.266667-31.857778 2.275556-61.44 6.826667-88.746667 11.377778-13.653333 2.275556-25.031111 4.551111-38.684444 6.826666v-9.102222z m11.377778 70.542222c22.755556-4.551111 45.511111-9.102222 70.542222-13.653333-11.377778 18.204444-20.48 34.133333-31.857778 52.337778-6.826667 11.377778-13.653333 22.755556-18.204444 36.408889-9.102222-25.031111-15.928889-50.062222-20.48-75.093334z m188.871111 384.568889c13.653333 2.275556 27.306667 2.275556 40.96 2.275556 20.48 2.275556 40.96 2.275556 61.44 2.275555-15.928889 18.204444-31.857778 36.408889-50.062223 54.613334-15.928889-18.204444-34.133333-36.408889-52.337777-59.164445z m309.475555-4.551111c6.826667 81.92-9.102222 141.084444-43.235555 161.564444-36.408889 20.48-93.297778 2.275556-159.288889-50.062222l-9.102222-6.826666 27.306666-27.306667c20.48-20.48 38.684444-45.511111 56.888889-68.266667 31.857778-2.275556 61.44-6.826667 88.746667-11.377778 13.653333-2.275556 25.031111-4.551111 38.684444-6.826666v9.102222z m-11.377778-70.542222c-22.755556 4.551111-47.786667 9.102222-70.542222 13.653333 11.377778-18.204444 20.48-34.133333 31.857778-52.337778 6.826667-11.377778 13.653333-22.755556 18.204444-36.408889 9.102222 25.031111 15.928889 50.062222 20.48 75.093334zM705.422222 512c-11.377778 27.306667-27.306667 56.888889-43.235555 84.195556-18.204444 31.857778-36.408889 61.44-56.888889 88.746666-34.133333 2.275556-68.266667 2.275556-104.675556 0-31.857778-2.275556-63.715556-4.551111-93.297778-9.102222-15.928889-25.031111-34.133333-52.337778-47.786666-79.644444-15.928889-27.306667-29.582222-56.888889-40.96-84.195556 11.377778-27.306667 27.306667-56.888889 43.235555-84.195556 18.204444-31.857778 36.408889-61.44 56.888889-88.746666 34.133333-2.275556 68.266667-2.275556 104.675556 0 31.857778 2.275556 63.715556 4.551111 93.297778 9.102222 15.928889 25.031111 34.133333 52.337778 47.786666 79.644444 13.653333 29.582222 27.306667 56.888889 40.96 84.195556zM614.4 143.36c31.857778-18.204444 77.368889-34.133333 111.502222-15.928889 36.408889 20.48 50.062222 79.644444 43.235556 161.564445 0 11.377778-2.275556 20.48-4.551111 31.857777-36.408889-11.377778-75.093333-20.48-116.053334-27.306666-29.582222-40.96-59.164444-77.368889-91.022222-109.226667 20.48-15.928889 38.684444-29.582222 56.888889-40.96z m81.92 220.728889c18.204444 4.551111 38.684444 9.102222 54.613333 15.928889-4.551111 18.204444-11.377778 36.408889-15.928889 54.613333-6.826667-11.377778-11.377778-25.031111-18.204444-36.408889l-20.48-34.133333z m254.862222 172.942222c-2.275556 38.684444-40.96 68.266667-75.093333 86.471111-18.204444 9.102222-38.684444 20.48-61.44 27.306667-9.102222-43.235556-25.031111-91.022222-43.235556-136.533333 15.928889-38.684444 29.582222-75.093333 38.684445-111.502223 9.102222 4.551111 20.48 9.102222 29.582222 13.653334 72.817778 34.133333 113.777778 79.644444 111.502222 120.604444z" p-id="34441"></path><path d="M480.142222 439.182222c-36.408889 20.48-50.062222 65.991111-29.582222 100.124445 20.48 36.408889 65.991111 50.062222 100.124444 29.582222 36.408889-20.48 50.062222-65.991111 29.582223-100.124445-18.204444-34.133333-63.715556-47.786667-100.124445-29.582222z" p-id="34442"></path></svg>