<?xml version="1.0" standalone="no"?><!DOCTYPE svg PUBLIC "-//W3C//DTD SVG 1.1//EN" "http://www.w3.org/Graphics/SVG/1.1/DTD/svg11.dtd"><svg t="1760243625224" class="icon" viewBox="0 0 1143 1024" version="1.1" xmlns="http://www.w3.org/2000/svg" p-id="40961" xmlns:xlink="http://www.w3.org/1999/xlink" width="53.578125" height="48"><path d="M658.093 341.282c-34.605-22.673-69.807-45.345-103.815-69.21-12.53-8.95-23.866-6.563-36.395-2.984-48.925 13.723-97.252 28.042-146.177 41.765-39.378 10.74-71-2.983-80.546-34.008-10.74-35.799 7.16-66.824 47.731-79.353 62.647-19.093 125.89-35.799 188.538-54.295 22.672-6.563 42.958-2.386 62.05 10.74 65.034 43.555 131.261 86.513 196.295 130.067 41.168 28.042 43.554 68.017 5.966 102.026-56.084 50.714-112.765 100.832-169.445 150.353-14.916 12.53-19.093 19.092 2.983 29.235 57.874 26.252 114.554 54.89 171.235 82.933 51.908 25.059 60.857 56.084 31.025 105.008-47.134 76.967-94.865 153.933-142 230.9-14.916 24.462-34.008 42.958-64.437 38.781-44.151-5.37-65.033-51.907-40.571-93.672 32.815-55.488 67.42-109.782 101.428-164.673 19.093-31.025 19.69-31.621-13.722-47.73-62.647-30.43-124.698-60.858-187.345-91.286-49.521-24.463-57.277-69.807-16.706-106.799 54.891-50.118 111.572-99.042 167.06-148.563 9.545-8.95 20.882-15.513 26.848-29.235z" p-id="40962"></path><path d="M405.715 603.206c15.512 35.799 41.764 52.504 72.193 64.437 16.11 5.967 18.496 13.126 8.353 28.042-28.639 41.765-55.488 84.723-82.933 127.084-7.756 11.933-17.9 21.48-29.832 28.64-93.076 53.697-185.555 107.394-278.034 160.495-15.512 8.95-31.622 16.11-50.714 9.546-25.059-8.353-40.572-25.655-43.555-51.31-2.983-26.253 10.74-45.942 32.815-59.068 47.135-28.042 92.48-59.067 142-81.143 95.463-43.555 168.253-108.588 214.79-203.454 1.79-7.16 7.757-12.53 14.917-23.269zM890.185 276.845c-75.176 0-138.42-62.647-138.42-138.42 0-74.58 63.84-139.018 138.42-138.42 75.177 0 138.42 63.243 138.42 138.42-0.596 75.773-63.243 138.42-138.42 138.42zM858.564 332.929c11.932 7.756 23.269 13.126 31.621 20.882 23.27 22.672 38.782 14.32 56.681-7.756 26.849-32.815 56.68-63.84 85.916-94.866 29.236-31.025 63.84-35.202 89.496-12.53 28.042 24.463 27.445 58.471-2.386 91.883-46.538 51.908-93.076 103.219-140.807 153.933-29.236 31.622-53.698 34.605-89.496 11.336-25.656-16.706-51.311-34.605-76.967-51.31-11.932-7.757-14.916-14.32-1.79-23.866 29.236-20.883 44.152-50.118 47.732-87.706z" p-id="40963"></path></svg>